<?xml version="1.0" encoding="UTF-8" standalone="no"?>
<!-- Created with Inkscape (http://www.inkscape.org/) -->
<svg
   xmlns:dc="http://purl.org/dc/elements/1.1/"
   xmlns:cc="http://web.resource.org/cc/"
   xmlns:rdf="http://www.w3.org/1999/02/22-rdf-syntax-ns#"
   xmlns:svg="http://www.w3.org/2000/svg"
   xmlns="http://www.w3.org/2000/svg"
   xmlns:xlink="http://www.w3.org/1999/xlink"
   xmlns:sodipodi="http://sodipodi.sourceforge.net/DTD/sodipodi-0.dtd"
   xmlns:inkscape="http://www.inkscape.org/namespaces/inkscape"
   width="270"
   height="240"
   id="svg2"
   sodipodi:version="0.32"
   inkscape:version="0.45.1"
   sodipodi:docbase="/home/wooptoo/tmp"
   sodipodi:docname="American-motors.svg"
   inkscape:output_extension="org.inkscape.output.svg.inkscape"
   version="1.0">
  <defs
     id="defs4">
    <linearGradient
       id="linearGradient9039">
      <stop
         style="stop-color:#ef1106;stop-opacity:1;"
         offset="0"
         id="stop9041" />
      <stop
         style="stop-color:#2a1a15;stop-opacity:1;"
         offset="1"
         id="stop9043" />
    </linearGradient>
    <linearGradient
       id="linearGradient6120">
      <stop
         style="stop-color:#0247af;stop-opacity:1;"
         offset="0"
         id="stop6122" />
      <stop
         style="stop-color:#2a2c2f;stop-opacity:1;"
         offset="1"
         id="stop6124" />
    </linearGradient>
    <linearGradient
       inkscape:collect="always"
       xlink:href="#linearGradient6120"
       id="linearGradient8068"
       x1="422.14285"
       y1="430.93362"
       x2="764.12811"
       y2="522.5683"
       gradientUnits="userSpaceOnUse" />
    <linearGradient
       inkscape:collect="always"
       xlink:href="#linearGradient9039"
       id="linearGradient9045"
       x1="350.71429"
       y1="328.64789"
       x2="350.71429"
       y2="1145.5042"
       gradientUnits="userSpaceOnUse" />
    <linearGradient
       inkscape:collect="always"
       xlink:href="#linearGradient6120"
       id="linearGradient14881"
       gradientUnits="userSpaceOnUse"
       x1="422.14285"
       y1="430.93362"
       x2="764.12811"
       y2="522.5683" />
    <linearGradient
       inkscape:collect="always"
       xlink:href="#linearGradient9039"
       id="linearGradient14883"
       gradientUnits="userSpaceOnUse"
       x1="350.71429"
       y1="328.64789"
       x2="350.71429"
       y2="1145.5042" />
    <linearGradient
       inkscape:collect="always"
       xlink:href="#linearGradient9039"
       id="linearGradient14886"
       gradientUnits="userSpaceOnUse"
       x1="350.71429"
       y1="328.64789"
       x2="350.71429"
       y2="1145.5042"
       gradientTransform="translate(3.57143,-1.4285736)" />
    <linearGradient
       inkscape:collect="always"
       xlink:href="#linearGradient6120"
       id="linearGradient14889"
       gradientUnits="userSpaceOnUse"
       x1="422.14285"
       y1="430.93362"
       x2="764.12811"
       y2="522.5683"
       gradientTransform="translate(3.57143,-1.4285736)" />
    <linearGradient
       inkscape:collect="always"
       xlink:href="#linearGradient6120"
       id="linearGradient16848"
       gradientUnits="userSpaceOnUse"
       gradientTransform="translate(3.57143,-1.4285736)"
       x1="422.14285"
       y1="430.93362"
       x2="764.12811"
       y2="522.5683" />
    <linearGradient
       inkscape:collect="always"
       xlink:href="#linearGradient9039"
       id="linearGradient16850"
       gradientUnits="userSpaceOnUse"
       gradientTransform="translate(3.57143,-1.4285736)"
       x1="350.71429"
       y1="328.64789"
       x2="350.71429"
       y2="1145.5042" />
  </defs>
  <sodipodi:namedview
     id="base"
     pagecolor="#ffffff"
     bordercolor="#666666"
     borderopacity="1.0"
     gridtolerance="10000"
     guidetolerance="10"
     objecttolerance="10"
     inkscape:pageopacity="0.0"
     inkscape:pageshadow="2"
     inkscape:zoom="1"
     inkscape:cx="114.73946"
     inkscape:cy="134.33981"
     inkscape:document-units="px"
     inkscape:current-layer="layer1"
     inkscape:window-width="1024"
     inkscape:window-height="716"
     inkscape:window-x="0"
     inkscape:window-y="0"
     showgrid="false"
     width="270px"
     height="240px" />
  <metadata
     id="metadata7">
    <rdf:RDF>
      <cc:Work
         rdf:about="">
        <dc:format>image/svg+xml</dc:format>
        <dc:type
           rdf:resource="http://purl.org/dc/dcmitype/StillImage" />
        <cc:license
           rdf:resource="" />
      </cc:Work>
    </rdf:RDF>
  </metadata>
  <g
     inkscape:label="Layer 1"
     inkscape:groupmode="layer"
     id="layer1"
     transform="translate(-124.7457,-124.07647)">
    <g
       id="g16843"
       transform="matrix(0.8534535,0,0,0.8534535,-70.615179,-142.62936)">
      <rect
         y="326.64792"
         x="425.71429"
         height="205.71428"
         width="108.57143"
         id="rect2221"
         style="fill:url(#linearGradient16848);fill-opacity:1;fill-rule:evenodd;stroke:none;stroke-width:3;stroke-linecap:round;stroke-linejoin:round;stroke-miterlimit:4;stroke-dasharray:none;stroke-dashoffset:0;stroke-opacity:1" />
      <path
         sodipodi:nodetypes="cccsc"
         id="path2223"
         d="M 240,327.21933 L 240,530.07647 L 417.1875,337.18361 C 417.1875,337.18361 423.75047,327.54075 415.17857,327.54075 C 408.48155,327.54075 240,327.57647 240,327.21933 z "
         style="fill:url(#linearGradient16850);fill-opacity:1;fill-rule:evenodd;stroke:none;stroke-width:1px;stroke-linecap:butt;stroke-linejoin:miter;stroke-opacity:1" />
      <path
         id="text10985"
         d="M 256.49979,574.19289 L 248.58228,574.19289 L 247.49285,578.60995 L 240.38857,578.60995 L 248.84313,551.85208 L 256.42307,551.85208 L 264.87761,578.60995 L 257.60456,578.60995 L 256.49979,574.19289 M 255.04211,568.40692 L 252.55638,558.78795 L 250.08599,568.40692 L 255.04211,568.40692 M 266.71889,559.226 L 272.54962,559.226 L 272.54962,562.05511 C 273.38841,560.87482 274.23234,560.03521 275.08137,559.5363 C 275.94063,559.03742 276.97379,558.78798 278.18086,558.78795 C 279.47998,558.78798 280.50803,559.06176 281.26501,559.6093 C 282.02197,560.15689 282.64084,560.97216 283.12163,562.05511 C 284.10364,560.78964 284.9987,559.93178 285.80684,559.48154 C 286.61493,559.01917 287.6123,558.78798 288.79892,558.78795 C 290.5481,558.78798 291.91373,559.40855 292.89577,560.64968 C 293.87776,561.87869 294.36877,563.80735 294.3688,566.43567 L 294.3688,578.60995 L 288.10844,578.60995 L 288.10844,567.56731 C 288.10842,566.69121 287.96521,566.04021 287.6788,565.61431 C 287.25939,564.94507 286.73769,564.61044 286.11372,564.61043 C 285.37719,564.61044 284.78389,564.92682 284.33381,565.55956 C 283.88371,566.19232 283.65866,567.20835 283.65868,568.60769 L 283.65868,578.60995 L 277.39832,578.60995 L 277.39832,567.93235 C 277.39831,567.08059 277.35739,566.5026 277.27557,566.19838 C 277.14258,565.71167 276.91242,565.32228 276.5851,565.03024 C 276.25774,564.72605 275.87413,564.57394 275.43429,564.57393 C 274.71822,564.57394 274.13004,564.89641 273.66973,565.5413 C 273.2094,566.18623 272.97925,567.24487 272.97926,568.7172 L 272.97926,578.60995 L 266.71889,578.60995 L 266.71889,559.226 M 316.18797,570.76146 L 303.66727,570.76146 C 303.77978,571.95395 304.05085,572.84223 304.48049,573.42629 C 305.08402,574.26591 305.87167,574.68571 306.84348,574.6857 C 307.45722,574.68571 308.04029,574.50319 308.59268,574.13813 C 308.93024,573.90694 309.29338,573.49931 309.68211,572.91524 L 315.83506,573.59056 C 314.89395,575.53748 313.75849,576.93683 312.42869,577.7886 C 311.09886,578.62821 309.19109,579.04801 306.70538,579.04801 C 304.54698,579.04801 302.84891,578.68904 301.61116,577.97112 C 300.37341,577.24103 299.34537,576.09113 298.52702,574.52143 C 297.7189,572.93957 297.31484,571.08393 297.31484,568.95449 C 297.31484,565.92461 298.12808,563.47273 299.75454,561.59881 C 301.39123,559.72492 303.64679,558.78798 306.52124,558.78795 C 308.85352,558.78798 310.6948,559.20778 312.04508,560.04736 C 313.39535,560.88698 314.42339,562.1038 315.12924,563.69782 C 315.83504,565.29187 316.18795,567.36655 316.18797,569.92186 L 316.18797,570.76146 M 309.83555,567.20226 C 309.71279,565.76643 309.38544,564.73821 308.85354,564.11762 C 308.33183,563.49706 307.64135,563.18677 306.78209,563.18676 C 305.78984,563.18677 304.99707,563.65524 304.40377,564.59219 C 304.02529,565.17627 303.78489,566.04629 303.6826,567.20226 L 309.83555,567.20226 M 319.14936,559.226 L 324.99543,559.226 L 324.99543,562.40191 C 325.55803,561.02692 326.13599,560.08389 326.7293,559.5728 C 327.33282,559.04958 328.07445,558.78798 328.95419,558.78795 C 329.8748,558.78798 330.8824,559.12868 331.97695,559.81008 L 330.04361,565.10324 C 329.30708,564.73821 328.72401,564.5557 328.29439,564.55567 C 327.47603,564.5557 326.84181,564.95724 326.39173,565.76033 C 325.74728,566.89199 325.42506,569.00925 325.42506,572.11214 L 325.42506,578.60995 L 319.14936,578.60995 L 319.14936,559.226 M 333.25051,551.85208 L 339.49553,551.85208 L 339.49553,556.90796 L 333.25051,556.90796 L 333.25051,551.85208 M 333.25051,559.226 L 339.49553,559.226 L 339.49553,578.60995 L 333.25051,578.60995 L 333.25051,559.226 M 355.66811,571.03524 L 361.60623,571.83835 C 361.27888,573.31071 360.74183,574.58836 359.99511,575.67133 C 359.24835,576.74214 358.29191,577.57566 357.12578,578.17189 C 355.96984,578.76814 354.49683,579.06626 352.7067,579.06626 C 350.97793,579.06626 349.5356,578.87766 348.3797,578.50044 C 347.23401,578.11106 346.24688,577.49048 345.41831,576.6387 C 344.58972,575.77477 343.94016,574.76481 343.46962,573.60882 C 342.99906,572.45285 342.76379,570.91966 342.76379,569.00924 C 342.76379,567.01367 343.05021,565.35271 343.62306,564.02636 C 344.04245,563.05293 344.6153,562.18289 345.34159,561.41628 C 346.06786,560.63753 346.81461,560.05955 347.58181,559.68231 C 348.79909,559.08609 350.35906,558.78798 352.26173,558.78795 C 354.92135,558.78798 356.94675,559.35379 358.33796,560.48541 C 359.73935,561.61708 360.72137,563.27194 361.28401,565.45004 L 355.40725,566.38091 C 355.22311,565.55349 354.88554,564.93291 354.39455,564.51917 C 353.91376,564.0933 353.26419,563.88036 352.44586,563.88035 C 351.41268,563.88036 350.57388,564.32449 349.92944,565.21276 C 349.29521,566.08888 348.9781,567.4213 348.97811,569.21002 C 348.9781,570.80405 349.29521,572.0148 349.92944,572.84222 C 350.56365,573.66967 351.37176,574.08338 352.35379,574.08338 C 353.17213,574.08338 353.85749,573.83394 354.40989,573.33504 C 354.97249,572.83615 355.3919,572.06955 355.66811,571.03524 M 370.19887,565.5048 L 364.23006,564.75646 C 364.45511,563.51532 364.77732,562.54186 365.19672,561.83608 C 365.62635,561.11818 366.24012,560.49761 367.03801,559.97436 C 367.61085,559.59715 368.3985,559.30512 369.40099,559.09824 C 370.40345,558.8914 371.48777,558.78798 372.65391,558.78795 C 374.52587,558.78798 376.02959,558.91574 377.16505,559.17125 C 378.30049,559.41464 379.2467,559.93178 380.0037,560.7227 C 380.5356,561.27028 380.95501,562.04905 381.2619,563.05899 C 381.56876,564.0568 381.72221,565.012 381.72223,565.9246 L 381.72223,574.48493 C 381.72221,575.39755 381.76823,576.11548 381.86032,576.6387 C 381.9626,577.14977 382.17741,577.80685 382.50477,578.60995 L 376.64336,578.60995 C 376.40807,578.11106 376.25462,577.73384 376.18303,577.47831 C 376.11142,577.21061 376.03981,576.79689 375.96822,576.23715 C 375.14986,577.1741 374.33663,577.84335 373.52853,578.24491 C 372.42375,578.78031 371.13997,579.04801 369.67718,579.04801 C 367.73359,579.04801 366.25545,578.5126 365.24276,577.44181 C 364.24028,576.371 363.73904,575.05076 363.73904,573.48105 C 363.73904,572.00871 364.10219,570.79798 364.82847,569.84884 C 365.55475,568.89974 366.89479,568.19398 368.8486,567.73158 C 371.19111,567.17185 372.71017,566.78248 373.40577,566.56344 C 374.10135,566.33225 374.83786,566.03412 375.61531,565.66907 C 375.61529,564.75647 375.45674,564.11764 375.13964,563.75258 C 374.82253,563.38755 374.26503,563.20502 373.46715,563.20501 C 372.4442,563.20502 371.677,563.39971 371.16555,563.78909 C 370.76659,564.0933 370.44436,564.66521 370.19887,565.5048 M 375.61531,569.41079 C 374.75603,569.77585 373.86096,570.0983 372.93011,570.37816 C 371.66166,570.77972 370.85866,571.17519 370.5211,571.56457 C 370.17329,571.96612 369.9994,572.42243 369.9994,572.93348 C 369.9994,573.51757 370.16817,573.99821 370.50575,574.37542 C 370.85355,574.74046 371.3599,574.92299 372.0248,574.92299 C 372.7204,574.92299 373.36484,574.72222 373.95816,574.32066 C 374.56167,573.91911 374.98619,573.43239 375.23171,572.86048 C 375.48743,572.27641 375.61529,571.52198 375.61531,570.59719 L 375.61531,569.41079 M 385.49686,559.226 L 391.31223,559.226 L 391.31223,562.38365 C 392.18172,561.09384 393.06144,560.17514 393.9514,559.62756 C 394.84134,559.06784 395.92565,558.78798 397.20433,558.78795 C 398.93308,558.78798 400.28335,559.40247 401.25515,560.63144 C 402.23715,561.84827 402.72816,563.73434 402.72818,566.28965 L 402.72818,578.60995 L 396.45248,578.60995 L 396.45248,567.95061 C 396.45246,566.7338 396.26322,565.87594 395.88475,565.37703 C 395.50625,564.86598 394.97432,564.61044 394.28897,564.61043 C 393.53198,564.61044 392.91823,564.95116 392.44769,565.63257 C 391.97713,566.314 391.74186,567.5369 391.74187,569.30128 L 391.74187,578.60995 L 385.49686,578.60995 L 385.49686,559.226 M 417.32032,551.85208 L 426.46536,551.85208 L 429.99448,568.13313 L 433.50824,551.85208 L 442.62258,551.85208 L 442.62258,578.60995 L 436.94531,578.60995 L 436.94531,558.20388 L 432.54157,578.60995 L 427.40133,578.60995 L 423.01295,558.20388 L 423.01295,578.60995 L 417.32032,578.60995 L 417.32032,551.85208 M 445.86018,568.97273 C 445.86018,566.01588 446.69898,563.58224 448.3766,561.67181 C 450.0542,559.74926 452.31999,558.78798 455.17398,558.78795 C 458.43713,558.78798 460.9024,559.91353 462.5698,562.16462 C 463.90983,563.97771 464.57985,566.21056 464.57987,568.86322 C 464.57985,571.84444 463.74615,574.29024 462.07879,576.20064 C 460.42162,578.09889 458.12513,579.04801 455.18934,579.04801 C 452.57062,579.04801 450.45314,578.25707 448.83691,576.67521 C 446.85241,574.71613 445.86018,572.14864 445.86018,568.97273 M 452.12053,568.95449 C 452.12052,570.68237 452.41206,571.96004 452.99514,572.78747 C 453.58843,573.61491 454.33006,574.02862 455.22002,574.02862 C 456.12019,574.02862 456.8567,573.62099 457.42956,572.80572 C 458.01262,571.99046 458.30415,570.68237 458.30416,568.88148 C 458.30415,567.20228 458.01262,565.95503 457.42956,565.13976 C 456.84647,564.31233 456.1253,563.89861 455.26605,563.89859 C 454.35563,563.89861 453.60378,564.31841 453.01048,565.158 C 452.41717,565.98546 452.12052,567.25094 452.12053,568.95449 M 475.15188,551.85208 L 475.15188,559.226 L 478.58893,559.226 L 478.58893,564.64694 L 475.15188,564.64694 L 475.15188,571.52806 C 475.15187,572.3555 475.21836,572.90307 475.35134,573.17076 C 475.55593,573.58449 475.91396,573.79135 476.42544,573.79135 C 476.88573,573.79135 477.53019,573.63316 478.35877,573.31678 L 478.8191,578.44568 C 477.27445,578.84723 475.83212,579.04801 474.49208,579.04801 C 472.93722,579.04801 471.79154,578.81072 471.05503,578.33616 C 470.31851,577.86161 469.77124,577.14368 469.41322,576.1824 C 469.06542,575.20894 468.89153,573.63925 468.89153,571.4733 L 468.89153,564.64694 L 466.58992,564.64694 L 466.58992,559.226 L 468.89153,559.226 L 468.89153,555.66681 L 475.15188,551.85208 M 480.78314,568.97273 C 480.78314,566.01588 481.62194,563.58224 483.29955,561.67181 C 484.97715,559.74926 487.24295,558.78798 490.09694,558.78795 C 493.36008,558.78798 495.82535,559.91353 497.49275,562.16462 C 498.83278,563.97771 499.50281,566.21056 499.50282,568.86322 C 499.50281,571.84444 498.6691,574.29024 497.00175,576.20064 C 495.34458,578.09889 493.04809,579.04801 490.11229,579.04801 C 487.49357,579.04801 485.3761,578.25707 483.75988,576.67521 C 481.77537,574.71613 480.78314,572.14864 480.78314,568.97273 M 487.04349,568.95449 C 487.04348,570.68237 487.33501,571.96004 487.9181,572.78747 C 488.51139,573.61491 489.25302,574.02862 490.14297,574.02862 C 491.04314,574.02862 491.77966,573.62099 492.35251,572.80572 C 492.93556,571.99046 493.22711,570.68237 493.22712,568.88148 C 493.22711,567.20228 492.93556,565.95503 492.35251,565.13976 C 491.76943,564.31233 491.04826,563.89861 490.18901,563.89859 C 489.27858,563.89861 488.52673,564.31841 487.93344,565.158 C 487.34013,565.98546 487.04348,567.25094 487.04349,568.95449 M 502.60232,559.226 L 508.44838,559.226 L 508.44838,562.40191 C 509.01098,561.02692 509.58895,560.08389 510.18225,559.5728 C 510.78577,559.04958 511.5274,558.78798 512.40714,558.78795 C 513.32777,558.78798 514.33535,559.12868 515.42991,559.81008 L 513.49655,565.10324 C 512.76004,564.73821 512.17696,564.5557 511.74735,564.55567 C 510.92899,564.5557 510.29477,564.95724 509.84469,565.76033 C 509.20023,566.89199 508.87801,569.00925 508.87802,572.11214 L 508.87802,578.60995 L 502.60232,578.60995 L 502.60232,559.226 M 516.16642,573.24378 L 522.3654,572.55019 C 522.62112,573.4263 522.97915,574.05297 523.43948,574.43017 C 523.89978,574.80739 524.51355,574.996 525.28076,574.996 C 526.11955,574.996 526.76911,574.78305 527.22945,574.35716 C 527.58746,574.04079 527.76647,573.64533 527.76649,573.17076 C 527.76647,572.63537 527.5312,572.22166 527.06067,571.92961 C 526.72308,571.72276 525.82801,571.46723 524.37546,571.16301 C 522.20683,570.7128 520.69801,570.29908 519.84898,569.92186 C 519.01017,569.53248 518.29923,568.88148 517.71616,567.96886 C 517.14332,567.05626 516.8569,566.01588 516.8569,564.84772 C 516.8569,563.57007 517.16889,562.46885 517.79289,561.54405 C 518.41687,560.61929 519.27614,559.93178 520.37067,559.48154 C 521.4652,559.01917 522.93312,558.78798 524.77441,558.78795 C 526.71797,558.78798 528.15008,558.96441 529.07073,559.31727 C 530.00159,559.67016 530.7739,560.21773 531.38767,560.95997 C 532.01165,561.70225 532.52823,562.70613 532.93742,563.9716 L 527.01464,564.66519 C 526.86118,564.04463 526.60544,563.58832 526.24743,563.29627 C 525.75641,562.9069 525.16311,562.71221 524.46753,562.71219 C 523.76169,562.71221 523.24512,562.86431 522.91778,563.1685 C 522.60066,563.46056 522.44211,563.81951 522.44211,564.24539 C 522.44211,564.71997 522.64669,565.07892 523.05588,565.32227 C 523.46504,565.56566 524.35499,565.78468 525.72573,565.97936 C 527.80228,566.25924 529.3469,566.64862 530.35962,567.14751 C 531.37232,567.64641 532.14462,568.35825 532.67657,569.28303 C 533.21871,570.20782 533.48979,571.22386 533.48981,572.33116 C 533.48979,573.45064 533.20336,574.53969 532.63054,575.59833 C 532.0679,576.65696 531.17284,577.50264 529.94533,578.13539 C 528.72803,578.75596 527.06576,579.06626 524.95853,579.06626 C 521.98179,579.06626 519.8592,578.56128 518.59077,577.55132 C 517.33256,576.54135 516.52444,575.10552 516.16642,573.24378"
         style="font-size:34.33606339px;font-style:normal;font-variant:normal;font-weight:normal;font-stretch:normal;text-align:start;line-height:125%;writing-mode:lr-tb;text-anchor:start;fill:#000000;fill-opacity:1;stroke:#000000;stroke-width:1.00000012px;stroke-linecap:butt;stroke-linejoin:miter;stroke-opacity:1;font-family:Arial Black" />
    </g>
  </g>
</svg>
